<svg
  width="684.9"
  height="71.201"
  viewBox="0 0 684.9 71.201"
  xmlns="http://www.w3.org/2000/svg"
>
  <g
    id="svgGroup"
    stroke-linecap="round"
    fill-rule="evenodd"
    font-size="9pt"
    stroke="#000"
    stroke-width="0.25mm"
    fill="#000"
    style="stroke: #000; stroke-width: 0.25mm; fill: #000"
  >
    <path
      d="M 128.2 70 L 68 70 L 80.2 1.2 L 139.7 1.2 L 136.8 17.7 L 99.4 17.7 L 97.7 27.2 L 129.7 27.2 L 126.9 43 L 94.9 43 L 93 53.5 L 131.1 53.5 L 128.2 70 Z M 240.1 70 L 218 70 L 230.2 1.2 L 252.3 1.2 L 247.8 26.3 L 272.1 26.3 L 276.6 1.2 L 298.7 1.2 L 286.5 70 L 264.4 70 L 269 43.9 L 244.7 43.9 L 240.1 70 Z M 213.2 29.5 L 192.1 29.5 A 11.333 11.333 0 0 0 192.323 28.098 A 10.091 10.091 0 0 0 192.35 27.75 Q 192.4 26.9 192.4 26.2 A 13.097 13.097 0 0 0 192.181 23.743 A 9.417 9.417 0 0 0 191.25 21.05 Q 190.1 18.9 187.9 17.7 A 9.106 9.106 0 0 0 185.585 16.842 Q 184.527 16.596 183.293 16.527 A 17.797 17.797 0 0 0 182.3 16.5 A 18.174 18.174 0 0 0 179.097 16.77 A 13.848 13.848 0 0 0 176.1 17.65 Q 173.4 18.8 171.5 20.9 Q 169.6 23 168.35 25.95 Q 167.1 28.9 166.5 32.4 Q 166.053 35.174 165.725 37.026 A 154.807 154.807 0 0 1 165.65 37.45 Q 165.3 39.4 165.15 40.55 Q 165.016 41.579 164.962 42.248 A 16.096 16.096 0 0 0 164.95 42.4 A 20.299 20.299 0 0 0 164.91 43.156 A 16.037 16.037 0 0 0 164.9 43.7 A 16.805 16.805 0 0 0 165.142 46.618 A 12.53 12.53 0 0 0 166 49.5 Q 167.1 52 169.45 53.35 Q 171.497 54.526 174.493 54.678 A 17.957 17.957 0 0 0 175.4 54.7 Q 179.8 54.7 182.9 53.2 Q 186 51.7 187.95 48.85 A 16.067 16.067 0 0 0 190.036 44.449 A 20.216 20.216 0 0 0 190.6 42.1 L 211 42.1 A 44.168 44.168 0 0 1 208.83 50.276 A 33.505 33.505 0 0 1 204.75 58 Q 200.1 64.5 192.4 67.85 Q 185.444 70.877 175.878 71.169 A 67.978 67.978 0 0 1 173.8 71.2 Q 163.731 71.2 156.869 68.331 A 24.051 24.051 0 0 1 150.4 64.4 Q 142.5 57.6 142.5 44.3 Q 142.5 42 142.75 39.6 Q 143 37.2 143.4 34.6 A 60.29 60.29 0 0 1 145.753 25.334 Q 147.527 20.197 150.17 16.081 A 37.009 37.009 0 0 1 150.55 15.5 Q 155.7 7.8 163.95 3.9 A 39.629 39.629 0 0 1 174.442 0.695 A 54.014 54.014 0 0 1 183.3 0 A 56.058 56.058 0 0 1 190.907 0.49 Q 195.643 1.139 199.55 2.65 A 26.409 26.409 0 0 1 205.196 5.614 A 20.581 20.581 0 0 1 210.1 10.4 A 18.987 18.987 0 0 1 213.322 17.961 A 26.388 26.388 0 0 1 213.8 23.1 A 32.798 32.798 0 0 1 213.685 25.802 A 36.407 36.407 0 0 1 213.65 26.2 A 40.436 40.436 0 0 1 213.281 29.024 A 45.035 45.035 0 0 1 213.2 29.5 Z M 440.1 70 L 418 70 L 430.1 1.2 L 472.2 1.2 Q 477.816 1.2 481.887 2.745 A 17.724 17.724 0 0 1 483.8 3.6 A 18.422 18.422 0 0 1 487.705 6.289 A 14.908 14.908 0 0 1 490.65 9.95 Q 492.9 13.9 492.9 18.8 Q 492.9 24.863 491.15 29.4 A 21.391 21.391 0 0 1 490.95 29.9 A 23.354 23.354 0 0 1 487.229 36.078 A 21.51 21.51 0 0 1 485.55 37.85 A 29.243 29.243 0 0 1 478.212 42.865 A 33.13 33.13 0 0 1 477.5 43.2 L 486.3 70 L 461.8 70 L 455.4 46.9 L 444.2 46.9 L 440.1 70 Z M 35.6 70 L 13.5 70 L 22.6 18.8 L 0 18.8 L 3.1 1.2 L 70.3 1.2 L 67.2 18.8 L 44.7 18.8 L 35.6 70 Z M 650.2 70 L 628.1 70 L 637.2 18.8 L 614.6 18.8 L 617.7 1.2 L 684.9 1.2 L 681.8 18.8 L 659.3 18.8 L 650.2 70 Z M 542.6 70 L 495.7 70 L 507.9 1.2 L 551.8 1.2 A 29.874 29.874 0 0 1 555.91 1.466 Q 558.076 1.768 559.87 2.411 A 14.444 14.444 0 0 1 562.15 3.45 A 16.339 16.339 0 0 1 565.482 5.922 A 13.1 13.1 0 0 1 567.95 9.2 Q 569.8 12.7 569.8 16.6 Q 569.8 20.7 568 24.4 Q 566.2 28.1 563 30.7 Q 559.8 33.3 555.4 34.1 L 555.3 34.5 Q 559.7 35.9 562.75 39.35 A 11.785 11.785 0 0 1 565.389 44.618 A 17.324 17.324 0 0 1 565.8 48.5 A 24.262 24.262 0 0 1 565.125 54.352 A 18.979 18.979 0 0 1 562.7 60.05 Q 559.6 64.9 554.35 67.45 A 25.527 25.527 0 0 1 545.481 69.87 A 31.128 31.128 0 0 1 542.6 70 Z M 361.653 70.689 A 58.417 58.417 0 0 0 369.6 71.2 A 75.009 75.009 0 0 0 371.5 71.177 Q 382.584 70.896 390.65 67.3 Q 399.4 63.4 404.75 55.7 Q 407.759 51.369 409.709 45.867 A 57.457 57.457 0 0 0 412.1 36.6 A 60.46 60.46 0 0 0 412.125 36.457 A 55.562 55.562 0 0 0 412.7 32.1 A 51.826 51.826 0 0 0 412.792 30.946 A 44.652 44.652 0 0 0 412.9 27.9 A 44.05 44.05 0 0 0 412.883 26.688 Q 412.65 18.192 409.1 12.4 A 21.951 21.951 0 0 0 404.715 7.232 A 25.268 25.268 0 0 0 397.95 3.1 A 32.767 32.767 0 0 0 395.699 2.248 Q 392.217 1.073 388.111 0.512 A 59.276 59.276 0 0 0 380.1 0 Q 367.6 0 358.9 3.9 Q 350.2 7.8 345 15.5 Q 339.8 23.2 337.8 34.6 Q 337.4 37 337.15 39.25 A 43.399 43.399 0 0 0 337.078 39.95 A 38.716 38.716 0 0 0 336.9 43.6 Q 336.9 47.617 337.64 51.059 A 24.49 24.49 0 0 0 340.7 58.85 A 21.929 21.929 0 0 0 345.214 64.093 A 25.552 25.552 0 0 0 351.85 68.1 A 32.823 32.823 0 0 0 353.847 68.866 Q 357.425 70.108 361.653 70.689 Z M 595.6 70 L 573.5 70 L 585.7 1.2 L 607.8 1.2 L 595.6 70 Z M 371.5 54.7 A 19.575 19.575 0 0 0 375.344 54.337 A 16.159 16.159 0 0 0 378.05 53.55 Q 381 52.4 383.2 50.3 A 17.376 17.376 0 0 0 386.427 46.063 A 20.071 20.071 0 0 0 386.85 45.25 A 23.119 23.119 0 0 0 388.692 39.881 A 26.41 26.41 0 0 0 388.9 38.8 Q 389.4 35.9 389.7 34.05 Q 389.93 32.634 390.071 31.657 A 65.684 65.684 0 0 0 390.15 31.1 A 65.444 65.444 0 0 0 390.219 30.582 Q 390.283 30.079 390.321 29.709 A 16.506 16.506 0 0 0 390.35 29.4 Q 390.4 28.8 390.4 28.3 Q 390.4 24.7 389.05 22.05 Q 387.7 19.4 385 17.95 Q 382.67 16.699 379.297 16.528 A 21.618 21.618 0 0 0 378.2 16.5 A 19.575 19.575 0 0 0 374.356 16.864 A 16.159 16.159 0 0 0 371.65 17.65 A 15.034 15.034 0 0 0 366.685 20.77 A 14.567 14.567 0 0 0 366.55 20.9 A 17.731 17.731 0 0 0 363.518 24.874 A 20.746 20.746 0 0 0 362.95 25.95 A 23.119 23.119 0 0 0 361.108 31.32 A 26.41 26.41 0 0 0 360.9 32.4 Q 360.453 35.084 360.166 36.847 A 579.959 579.959 0 0 0 360.1 37.25 Q 359.87 38.667 359.729 39.644 A 65.684 65.684 0 0 0 359.65 40.2 A 65.438 65.438 0 0 0 359.581 40.719 Q 359.517 41.222 359.479 41.592 A 16.506 16.506 0 0 0 359.45 41.9 Q 359.4 42.5 359.4 43 A 16.037 16.037 0 0 0 359.686 46.095 A 12.278 12.278 0 0 0 360.7 49.15 Q 362 51.8 364.7 53.25 Q 367.03 54.502 370.403 54.673 A 21.618 21.618 0 0 0 371.5 54.7 Z M 326.7 50.4 L 301.4 50.4 L 304.2 34.6 L 329.5 34.6 L 326.7 50.4 Z M 449.4 16.9 L 446.9 31.6 L 461.4 31.6 A 7.432 7.432 0 0 0 464.15 31.057 A 9.562 9.562 0 0 0 465.4 30.45 Q 467.4 29.3 468.7 27.3 A 8.084 8.084 0 0 0 469.978 23.361 A 9.961 9.961 0 0 0 470 22.7 A 7.87 7.87 0 0 0 469.803 20.891 A 5.474 5.474 0 0 0 468.6 18.5 A 4.603 4.603 0 0 0 465.254 16.91 A 6.322 6.322 0 0 0 464.9 16.9 L 449.4 16.9 Z M 522.7 42.2 L 520.7 54 L 537.7 54 A 6.608 6.608 0 0 0 539.271 53.823 A 4.912 4.912 0 0 0 541.05 53 A 6.217 6.217 0 0 0 543.01 50.554 A 7.408 7.408 0 0 0 543.1 50.35 A 8.957 8.957 0 0 0 543.799 46.949 A 10.237 10.237 0 0 0 543.8 46.8 A 5.226 5.226 0 0 0 543.494 44.987 A 4.697 4.697 0 0 0 542.65 43.55 A 3.481 3.481 0 0 0 541.167 42.549 Q 540.22 42.2 538.9 42.2 L 522.7 42.2 Z M 527.3 16.3 L 525.2 28 L 540.4 28 A 8.804 8.804 0 0 0 541.699 27.91 Q 542.414 27.803 543.015 27.571 A 5.076 5.076 0 0 0 543.3 27.45 A 5.058 5.058 0 0 0 544.94 26.274 A 4.877 4.877 0 0 0 545.25 25.9 Q 546 24.9 546.35 23.65 Q 546.7 22.4 546.7 21.1 Q 546.7 19.2 545.65 17.75 A 3.344 3.344 0 0 0 543.734 16.472 Q 543.171 16.322 542.495 16.303 A 7.046 7.046 0 0 0 542.3 16.3 L 527.3 16.3 Z"
      vector-effect="non-scaling-stroke"
    />
  </g>
</svg>
